<?xml version="1.0" encoding="UTF-8"?>
<svg id="Capa_1" data-name="Capa 1" xmlns="http://www.w3.org/2000/svg" viewBox="0 0 3995 3990.5">
  <defs>
    <style>
      .cls-1 {
        stroke-width: 7.244px;
      }

      .cls-1, .cls-2, .cls-3, .cls-4, .cls-5, .cls-6, .cls-7, .cls-8 {
        stroke: #3750a2;
        stroke-miterlimit: 10;
      }

      .cls-1, .cls-3, .cls-4, .cls-5, .cls-6, .cls-7, .cls-8 {
        fill: none;
      }

      .cls-1, .cls-9 {
        opacity: .49;
      }

      .cls-2 {
        stroke-width: 17.476px;
      }

      .cls-2, .cls-10 {
        fill: #3750a2;
      }

      .cls-11 {
        opacity: .5;
      }

      .cls-3 {
        stroke-width: 6.807px;
      }

      .cls-10 {
        stroke-width: 0px;
      }

      .cls-12 {
        opacity: .45;
      }

      .cls-4 {
        stroke-width: 10px;
      }

      .cls-5 {
        stroke-width: 10.905px;
      }

      .cls-6 {
        opacity: .46;
        stroke-width: 7.021px;
      }

      .cls-7 {
        stroke-width: 17.403px;
      }

      .cls-8 {
        stroke-width: 5.776px;
      }
    </style>
  </defs>
  <path class="cls-2" d="M281.157,1274.422c4.212,59.975-60.464,112.082-130.204,93.763-4.626-1.214-17.99-5.837-28.342-13.694l-4.305-3.267c-8.501-6.453-15.535-14.661-20.504-24.106-14.721-27.983-19.575-57.451-7.072-89.796,3.579-9.248-.843-16.82-8.486-22.621-59.352-45.009-118.683-90.029-177.995-135.09-7.66-5.814-15.983-7.944-24.048-2.047-17.463,12.75-35.63,18.987-54.373,20.204-25.06,1.627-49.804-6.354-69.808-21.536-2.721-2.065-8.998-6.828-12.107-9.184-4.893-3.728-11.183-13.927-13.324-18.271-29.772-60.41-5.477-121.452,58.493-142.32,10.646-3.476,13.628-7.548,14.163-18.659,1.964-40.903,22.462-70.864,59.972-86.84,37.729-16.067,73.439-9.411,103.86,18.112,29.911,27.068,39.68,61.648,27.883,99.886-5.92,19.192-.88,29.57,14.129,40.677,54.898,40.649,109.243,82.062,163.312,123.822,13.251,10.235,23.72,10.88,38.33,1.52,34.313-21.991,70.609-22.844,105.423-.947,36.819,23.161,48.29,59.046,42.545,100.111-5.53,39.528-27.816,66.991-67.062,78.643-6.477,1.923-11.098,2.889-10.479,11.639Z"/>
  <path class="cls-4" d="M419.93,866.37c-23.899,3.495-46.722-20.843-41.486-49.333.347-1.89,1.796-7.383,4.632-11.766l1.179-1.823c2.329-3.6,5.405-6.665,9.039-8.941,10.766-6.74,22.425-9.573,35.759-5.54,3.813,1.155,6.713-.845,8.806-4.081,16.241-25.133,32.488-50.257,48.751-75.376,2.098-3.244,2.7-6.642.095-9.695-5.634-6.611-8.68-13.701-9.732-21.173-1.407-9.99,1.044-20.143,6.523-28.614.745-1.152,2.464-3.81,3.314-5.127,1.346-2.073,5.242-4.9,6.918-5.888,23.303-13.747,48.488-5.855,58.776,19.142,1.713,4.16,3.435,5.232,7.902,5.111,16.445-.446,29.065,6.862,36.595,21.407,7.574,14.63,5.984,29.136-4.125,42.152-9.942,12.798-23.5,17.754-39.174,14.18-7.866-1.793-11.872.539-15.869,6.886-14.629,23.217-29.581,46.236-44.68,69.154-3.701,5.617-3.643,9.83.546,15.401,9.844,13.083,11.279,27.597,3.557,42.204-8.168,15.448-22.198,21.124-38.822,20.061-16.002-1.024-27.675-9.124-33.526-24.494-.966-2.537-1.492-4.359-4.978-3.847Z"/>
  <g class="cls-12">
    <path class="cls-4" d="M2451.411,1039.887c6.256,7.44,10.518,16.079,14.208,24.923,7.362,17.642,19.175,31.083,35.612,40.859,9.553,5.682,18.84,11.915,25.591,21.163,11.157,15.284,10.186,36.782-2.45,50.985-14,15.737-32.331,21.486-52.362,19.728-20.588-1.806-40.776-.948-61.034,2.372-5.808.952-11.702,1.159-17.598.477-23.286-2.693-38.085-20.529-36.442-43.962.502-7.155,2.233-14.065,4.346-20.874,5.212-16.795,8.416-33.848,8.92-51.53.501-17.585,6.568-33.246,19.174-46.04,17.721-17.985,46.095-17.165,62.035,1.898Z"/>
    <path class="cls-4" d="M2274.29,1162.134c10.267-8.336,25.521-14.669,43.377-12.583,22.207,2.593,32.679,21.444,23.462,41.772-10.623,23.43-41.8,38.959-65.749,32.749-17.322-4.492-25.587-19.484-20.143-36.54,2.595-8.132,8.02-15.899,19.053-25.397Z"/>
    <path class="cls-4" d="M2374.655,1284.594c-6.583,6.15-14.246,10.378-23.093,12.207-18.462,3.816-33.212-7.228-34.516-26.039-1.152-16.624,5.412-30.541,16.189-42.649,8.01-8.999,17.72-15.431,29.799-17.698,16.938-3.178,30.891,6.401,33.21,23.427,2.509,18.422-4.959,33.526-17.057,46.766-1.349,1.476-3.013,2.664-4.531,3.985Z"/>
    <path class="cls-4" d="M2277.913,1070.32c14.625-11.755,31.073-16.395,49.449-11.479,23.579,6.308,30.672,29.399,15.061,48.146-13.247,15.908-37.791,22.778-57.405,16.068-22.519-7.704-27.995-32.366-10.947-49.372,1.203-1.2,2.558-2.246,3.842-3.364Z"/>
    <path class="cls-4" d="M2435.515,1226.641c9.853-7.736,19.411-12.452,31.024-9.761,10.705,2.481,16.811,9.933,20.031,19.977,7.231,22.559-6.36,52.061-28.205,61.464-17.039,7.334-33.955-.284-38.793-18.212-5.791-21.454,1.94-39.087,15.944-53.468Z"/>
  </g>
  <g class="cls-12">
    <path class="cls-4" d="M1029.589,1300.507c-7.975,5.557-16.964,9.021-26.105,11.896-18.236,5.736-32.689,16.286-43.912,31.771-6.523,9-13.57,17.685-23.39,23.572-16.23,9.729-37.552,6.818-50.555-7.05-14.407-15.366-18.474-34.142-14.912-53.932,3.66-20.34,4.631-40.523,3.156-60.998-.423-5.87-.096-11.759,1.116-17.569,4.788-22.948,23.889-36.073,47.078-32.318,7.081,1.147,13.805,3.496,20.396,6.216,16.254,6.71,32.948,11.443,50.512,13.543,17.468,2.089,32.516,9.547,44.117,23.258,16.309,19.275,12.927,47.458-7.5,61.609Z"/>
    <path class="cls-4" d="M923.859,1113.056c7.373,10.979,12.301,26.743,8.609,44.337-4.591,21.881-24.311,30.606-43.722,19.589-22.374-12.698-35.019-45.151-26.669-68.441,6.04-16.845,21.717-23.72,38.212-16.756,7.864,3.32,15.108,9.425,23.57,21.272Z"/>
    <path class="cls-4" d="M792.826,1201.937c-5.53-7.113-9.048-15.126-10.069-24.103-2.131-18.732,10.201-32.422,29.053-32.02,16.66.356,29.927,8.152,41.01,19.979,8.238,8.791,13.766,19.043,14.931,31.277,1.634,17.156-9.168,30.186-26.334,30.956-18.574.833-32.94-7.971-45.032-21.216-1.348-1.477-2.38-3.242-3.559-4.873Z"/>
    <path class="cls-4" d="M1014.969,1124.967c10.384,15.628,13.518,32.428,6.96,50.285-8.414,22.912-32.052,27.888-49.311,10.646-14.645-14.631-19.268-39.696-10.811-58.623,9.709-21.73,34.765-24.954,50.16-6.438,1.086,1.306,2.006,2.75,3.003,4.13Z"/>
    <path class="cls-4" d="M845.037,1267.788c6.813,10.512,10.646,20.458,6.916,31.779-3.439,10.437-11.412,15.844-21.707,18.142-23.12,5.161-51.273-11.042-58.662-33.647-5.763-17.632,3.354-33.79,21.645-36.988,21.89-3.827,38.752,5.466,51.808,20.714Z"/>
  </g>
  <g class="cls-9">
    <path class="cls-10" d="M1654.111,1296.84c-5.504.873-11.008.413-16.443-.389-10.843-1.6-20.938.23-30.6,5.413-5.615,3.013-11.423,5.732-17.962,6.314-10.806.962-21.08-5.871-24.321-16.277-3.591-11.53-.996-22.234,5.79-31.555,6.974-9.579,12.521-19.75,16.879-30.683,1.249-3.134,2.891-6.091,4.968-8.786,8.208-10.643,21.345-12.639,32.37-4.904,3.367,2.362,6.249,5.255,8.969,8.307,6.709,7.526,14.139,14.142,22.676,19.617,8.49,5.445,14.39,13.056,16.947,23.03,3.595,14.023-5.196,27.718-19.273,29.912Z"/>
    <path class="cls-10" d="M1646.426,1173.69c1.059,7.508-.34,16.873-6.643,25.028-7.839,10.142-20.195,9.713-27.456-.825-8.369-12.146-6.78-32.051,3.352-41.98,7.328-7.181,17.136-6.809,23.905.908,3.227,3.679,5.439,8.64,6.843,16.868Z"/>
    <path class="cls-10" d="M1556.597,1186.787c-1.075-5.052-.886-10.066.831-14.953,3.584-10.197,13.37-14.178,22.996-9.257,8.507,4.349,13.403,11.688,16.164,20.561,2.052,6.595,2.341,13.267-.116,19.87-3.446,9.26-12.277,13.282-21.327,9.387-9.791-4.214-15.003-12.348-17.93-22.205-.326-1.099-.418-2.268-.618-3.404Z"/>
    <path class="cls-10" d="M1690.456,1202.614c1.45,10.66-1.133,20.111-8.981,27.685-10.07,9.718-23.51,6.375-28.104-6.836-3.898-11.21-.016-25.299,9.079-32.95,10.442-8.784,24.176-4.183,27.49,9.219.234.945.347,1.92.517,2.882Z"/>
    <path class="cls-10" d="M1567.071,1233.817c.887,7.127.378,13.217-4.377,18.126-4.384,4.525-9.849,5.322-15.735,3.933-13.219-3.118-23.694-18.516-21.854-32.027,1.435-10.538,10.178-16.595,20.415-13.672,12.251,3.498,18.627,12.509,21.551,23.64Z"/>
  </g>
  <g class="cls-11">
    <path class="cls-4" d="M298.928,335.26c-6.669,7.072-14.759,12.301-23.119,16.986-16.676,9.346-28.665,22.63-36.482,40.084-4.543,10.144-9.664,20.088-18.072,27.86-13.896,12.844-35.363,14.357-50.928,3.443-17.246-12.093-25.069-29.639-25.632-49.739-.579-20.659-3.758-40.614-9.392-60.353-1.615-5.659-2.5-11.491-2.502-17.425-.009-23.442,16.002-40.198,39.469-41.267,7.165-.326,14.229.597,21.236,1.911,17.283,3.242,34.593,4.459,52.214,2.921,17.525-1.53,33.782,2.692,47.943,13.739,19.908,15.53,22.364,43.809,5.265,61.84Z"/>
    <path class="cls-4" d="M157.079,173.41c9.464,9.238,17.513,23.66,17.499,41.637-.016,22.357-17.534,34.933-38.789,28.121-24.498-7.852-43.517-37.031-40.109-61.536,2.465-17.724,16.404-27.662,33.975-24.221,8.377,1.64,16.717,6.134,27.424,15.999Z"/>
    <path class="cls-4" d="M47.004,287.222c-6.868-5.831-11.951-12.955-14.788-21.532-5.919-17.899,3.351-33.824,21.887-37.287,16.38-3.06,30.962,1.856,44.23,11.165,9.862,6.919,17.371,15.824,21.015,27.56,5.109,16.458-2.797,31.423-19.443,35.689-18.01,4.616-33.874-1.062-48.42-11.553-1.622-1.17-2.993-2.686-4.481-4.042Z"/>
    <path class="cls-4" d="M248.698,166.425c13.362,13.173,19.867,28.976,17.102,47.797-3.548,24.149-25.668,33.856-46.089,20.511-17.329-11.325-26.983-34.914-22.578-55.17,5.057-23.257,28.923-31.539,47.781-16.565,1.33,1.056,2.526,2.282,3.784,3.428Z"/>
    <path class="cls-4" d="M111.586,340.996c8.82,8.896,14.607,17.847,13.272,29.692-1.231,10.92-7.929,17.844-17.535,22.2-21.575,9.783-52.448-.317-64.305-20.932-9.249-16.08-3.631-33.761,13.619-40.634,20.643-8.225,39.051-2.579,54.95,9.675Z"/>
  </g>
  <path class="cls-7" d="M2233.612,2031.846c29.813,85.95-44.11,187.582-153.213,188.334-7.236.052-28.582-1.43-46.804-8.824l-7.578-3.075c-14.964-6.072-28.478-15.288-39.463-27.126-32.543-35.07-51.259-76.202-45.755-128.384,1.58-14.922-7.867-24.238-21.321-29.697-104.458-42.335-208.888-84.694-313.308-127.12-13.484-5.472-26.482-5.299-35.937,6.497-20.481,25.515-44.557,41.792-71.458,50.964-35.966,12.263-75.26,10.366-110.471-3.921-4.79-1.943-15.838-6.425-21.309-8.639-8.619-3.515-21.831-15.933-26.672-21.434-67.323-76.502-55.913-175.257,29.302-230.976,14.181-9.278,16.931-16.403,13.328-32.844-13.268-60.525,4.857-112.38,53.349-150.514,48.776-38.355,103.567-42.719,158.864-14.515,54.372,27.741,82.285,74.402,80.136,134.914-1.076,30.37,10.379,43.543,36.687,53.847,96.231,37.723,191.956,76.78,287.413,116.454,23.395,9.723,38.943,6.536,56.592-12.9,41.449-45.661,94.134-61.226,153.629-42.972,62.923,19.308,93.835,67.205,101.644,129.459,7.516,59.924-14.206,108.833-66.939,141.338-8.703,5.364-15.072,8.598-10.716,21.136Z"/>
  <g class="cls-12">
    <path class="cls-10" d="M1359.142,229.643c-9.296-2.842-17.57-7.774-25.476-13.189-15.772-10.802-32.994-15.658-52.105-14.925-11.107.426-22.29.246-32.985-3.845-17.674-6.759-28.549-25.33-25.669-44.12,3.192-20.82,15.45-35.612,33.216-45.03,18.26-9.679,34.736-21.378,49.931-35.18,4.356-3.957,9.191-7.336,14.509-9.97,21.007-10.403,43.126-3.482,54.489,17.078,3.47,6.278,5.774,13.018,7.704,19.882,4.758,16.929,11.343,32.983,20.535,48.096,9.142,15.03,12.567,31.473,8.944,49.064-5.092,24.73-29.35,39.471-53.093,32.14Z"/>
    <path class="cls-10" d="M1441.311,30.735c-4.084,12.579-13.441,26.188-29.56,34.148-20.047,9.899-39.086-.226-42.405-22.298-3.826-25.44,13.894-55.425,37.37-63.237,16.98-5.65,32.068,2.438,36.775,19.712,2.244,8.236,1.915,17.704-2.18,31.674Z"/>
    <path class="cls-10" d="M1290.49-17.46c2.18-8.742,6.312-16.457,12.743-22.802,13.419-13.242,31.803-11.995,43.126,3.083,10.007,13.325,12.066,28.574,9.606,44.595-1.829,11.908-6.48,22.586-15.384,31.057-12.486,11.878-29.405,11.427-40.61-1.602-12.123-14.096-14.069-30.833-11.116-48.523.329-1.972,1.08-3.874,1.636-5.808Z"/>
    <path class="cls-10" d="M1488.197,109.757c-5.882,17.818-17.162,30.656-35.257,36.523-23.218,7.528-41.728-7.994-38.821-32.215,2.466-20.554,19.329-39.666,39.438-44.701,23.088-5.78,41.094,11.939,36.035,35.481-.357,1.661-.925,3.276-1.395,4.912Z"/>
    <path class="cls-10" d="M1270.928,64.27c-4.062,11.85-9.519,21.006-20.728,25.062-10.333,3.739-19.51.806-27.674-5.873-18.335-15-22.972-47.15-9.753-66.92,10.311-15.421,28.65-18.225,42.46-5.811,16.526,14.856,19.627,33.858,15.695,53.542Z"/>
  </g>
  <g class="cls-12">
    <path class="cls-10" d="M4048.526,2076.691c-17.712,9.363-36.97,14.187-56.392,17.77-38.745,7.149-70.964,25.094-97.816,53.947-15.606,16.77-32.205,32.764-53.775,42.337-35.646,15.82-78.531,4.503-101.642-27.136-25.606-35.055-29.204-74.486-16.942-114.073,12.603-40.687,19.665-81.73,21.797-123.984.611-12.114,2.761-24.078,6.702-35.658,15.564-45.737,57.939-67.783,104.429-54.269,14.196,4.126,27.361,10.623,40.158,17.845,31.563,17.813,64.521,31.693,99.921,40.406,35.206,8.666,64.114,27.707,84.397,58.672,28.514,43.53,14.508,100.331-30.836,124.141Z"/>
    <path class="cls-10" d="M3879.385,1666.654c12.321,24.312,18.437,57.798,6.461,92.861-14.894,43.605-57.427,56.494-94.364,29.075-42.574-31.602-60.281-101.168-37.342-146.709,16.591-32.939,50.39-43.06,82.38-24.667,15.251,8.769,28.536,23.078,42.865,49.44Z"/>
    <path class="cls-10" d="M3588.992,1815.515c-9.523-15.94-14.704-33.217-14.535-51.836.351-38.853,29.021-63.758,67.483-58.193,33.99,4.918,59.168,24.201,78.866,51.182,14.641,20.054,23.37,42.417,22.676,67.735-.973,35.504-26.345,59.443-61.654,56.7-38.204-2.968-65.378-24.589-86.781-54.724-2.386-3.36-4.054-7.23-6.054-10.864Z"/>
    <path class="cls-10" d="M4062.764,1713.931c17.312,34.58,19.497,69.734,1.592,104.612-22.974,44.753-72.579,48.987-103.548,9.377-26.279-33.612-29.431-86.048-7.373-122.638,25.326-42.009,77.39-42.303,104.225-.555,1.893,2.945,3.411,6.13,5.104,9.204Z"/>
    <path class="cls-10" d="M3679.236,1963.351c11.293,23.217,16.633,44.526,6.155,66.746-9.66,20.485-27.329,29.541-48.965,31.653-48.593,4.743-102.107-35.482-111.537-83.581-7.355-37.518,15.358-68.277,53.579-70.218,45.74-2.324,77.896,20.927,100.768,55.4Z"/>
  </g>
  <path class="cls-5" d="M2849.911,304.083c33.203,17.464,39.605,68.891,6.98,99.875-2.163,2.056-9.005,7.627-16.574,10.539l-3.147,1.211c-6.216,2.391-12.881,3.427-19.524,2.961-19.681-1.381-36.909-8.484-49.963-25.741-3.731-4.936-9.201-5.077-14.789-2.928-43.373,16.706-86.745,33.396-130.133,50.064-5.601,2.154-9.464,5.87-8.985,12.086,1.029,13.453-1.629,25.139-7.14,35.483-7.368,13.83-19.729,24.336-34.354,29.962-1.989.765-6.578,2.531-8.849,3.407-3.585,1.372-11.062,1.359-14.07,1.068-41.829-4.046-66.234-36.985-56.294-77.778,1.653-6.79.472-9.71-5.248-13.642-21.056-14.476-30.219-35.192-26.374-60.34,3.868-25.294,19.128-42.053,43.722-49.153,24.185-6.979,45.739-.804,62.152,18.015,8.238,9.444,15.399,10.179,26.221,5.864,39.597-15.774,79.418-31.005,119.332-45.974,9.782-3.669,13.563-9.011,13.396-19.836-.397-25.427,11.072-44.964,34.124-56.242,24.381-11.927,47.187-6.226,67.087,10.309,19.155,15.917,26.405,36.76,19.697,61.409-1.107,4.068-2.113,6.837,2.733,9.382Z"/>
  <path class="cls-2" d="M3842.7,1105.833c-58.821,12.444-119.349-44.428-110.824-116.028.564-4.749,3.3-18.623,9.655-29.959l2.643-4.714c5.219-9.31,12.378-17.409,21.048-23.633,25.685-18.439,54.202-27.311,87.962-19.389,9.653,2.27,16.543-3.155,21.235-11.525,36.393-64.992,72.8-129.965,109.25-194.926,4.702-8.389,5.663-16.926-1.29-24.101-15.037-15.538-23.719-32.67-27.51-51.067-5.068-24.596-.576-50.204,11.703-72.111,1.67-2.98,5.522-9.854,7.426-13.258,3.017-5.361,12.251-12.997,16.259-15.717,55.727-37.819,119.536-22.175,149.027,38.306,4.911,10.065,9.356,12.457,20.434,11.454,40.783-3.696,73.285,12.474,94.281,47.422,21.117,35.153,19.45,71.439-3.615,105.366-22.684,33.358-55.586,47.803-95.086,41.392-19.825-3.216-29.408,3.206-38.339,19.604-32.69,59.98-66.211,119.517-100.116,178.828-8.309,14.536-7.505,24.994,3.781,38.173,26.514,30.952,32.364,66.784,15.477,104.285-17.862,39.662-51.822,55.972-93.287,55.946-39.913-.025-70.187-18.311-87.141-55.575-2.798-6.15-4.392-10.594-12.973-8.774Z"/>
  <path class="cls-6" d="M1917.505,955.071c-23.804,4.092-47.229-19.668-42.707-48.279.299-1.898,1.611-7.425,4.336-11.878l1.133-1.852c2.238-3.657,5.236-6.798,8.812-9.164,10.594-7.008,22.178-10.131,35.609-6.433,3.84,1.059,6.689-1.013,8.701-4.3,15.608-25.531,31.22-51.054,46.85-76.572,2.016-3.295,2.533-6.708-.148-9.695-5.798-6.468-9.02-13.479-10.259-20.923-1.657-9.952.54-20.163,5.805-28.768.716-1.171,2.368-3.871,3.185-5.208,1.294-2.106,5.118-5.029,6.768-6.06,22.951-14.326,48.326-7.066,59.236,17.666,1.817,4.116,3.564,5.144,8.027,4.912,16.428-.858,29.228,6.133,37.119,20.485,7.937,14.436,6.711,28.977-3.069,42.242-9.618,13.043-23.048,18.336-38.806,15.156-7.909-1.595-11.855.836-15.692,7.281-14.044,23.576-28.415,46.961-42.936,70.25-3.559,5.708-3.396,9.918.932,15.382,10.168,12.832,11.966,27.306,4.612,42.101-7.779,15.647-21.663,21.673-38.308,21.026-16.022-.623-27.894-8.428-34.128-23.648-1.029-2.512-1.6-4.32-5.073-3.721Z"/>
  <path class="cls-8" d="M2953.542,952.174c19.757-2.143,37.778,18.566,32.601,41.83-.343,1.543-1.702,6.015-4.168,9.533l-1.025,1.463c-2.025,2.889-4.648,5.315-7.705,7.075-9.058,5.213-18.73,7.186-29.57,3.461-3.099-1.066-5.545.489-7.365,3.086-14.122,20.168-28.249,40.328-42.389,60.484-1.824,2.603-2.423,5.379-.375,7.969,4.43,5.608,6.718,11.53,7.355,17.706.852,8.257-1.474,16.53-6.238,23.327-.648.925-2.143,3.058-2.882,4.114-1.17,1.663-4.46,3.868-5.868,4.63-19.58,10.591-40.046,3.331-47.74-17.536-1.282-3.473-2.664-4.407-6.34-4.444-13.535-.136-23.688-6.531-29.434-18.72-5.78-12.26-4.029-24.138,4.681-34.531,8.565-10.219,19.865-13.879,32.642-10.461,6.413,1.715,9.778-.08,13.258-5.177,12.738-18.642,25.736-37.111,38.851-55.493,3.214-4.505,3.296-7.971.022-12.679-7.694-11.058-8.43-23.036-1.634-34.809,7.188-12.451,18.897-16.69,32.533-15.307,13.125,1.331,22.475,8.348,26.816,21.164.716,2.115,1.093,3.629,3.975,3.315Z"/>
  <path class="cls-4" d="M3178.274,1516.485c36.491,8.706,55.418,56.951,31.473,95.042-1.587,2.527-6.838,9.618-13.451,14.312l-2.75,1.952c-5.431,3.854-11.632,6.507-18.185,7.699-19.411,3.531-37.861.912-54.779-12.579-4.836-3.86-10.171-2.643-15.053.822-37.891,26.917-75.785,53.82-113.7,80.704-4.894,3.473-7.717,8.029-5.715,13.934,4.325,12.78,4.641,24.761,1.861,36.147-3.717,15.223-13.094,28.461-25.873,37.531-1.738,1.234-5.747,4.08-7.731,5.49-3.134,2.216-10.382,4.054-13.368,4.516-41.529,6.429-73.325-19.448-73.788-61.431-.079-6.988-1.945-9.524-8.46-11.92-23.983-8.817-37.986-26.621-40.483-51.938-2.511-25.465,8.128-45.478,30.201-58.443,21.706-12.745,44.119-12.095,64.676,2.077,10.318,7.112,17.438,6.053,26.857-.806,34.463-25.081,69.278-49.69,104.247-74.07,8.57-5.975,10.912-12.087,8.072-22.534-6.676-24.538-.397-46.305,19.148-62.936,20.672-17.588,44.18-17.707,67.552-6.61,22.498,10.683,34.679,29.084,34.278,54.626-.066,4.215-.355,7.147,4.969,8.414Z"/>
  <g class="cls-12">
    <path class="cls-3" d="M3502.998,1659.038c-6.14-2.465-11.467-6.288-16.516-10.417-10.072-8.238-21.472-12.526-34.475-13.133-7.557-.353-15.131-1.122-22.148-4.514-11.596-5.606-17.898-18.828-14.859-31.406,3.368-13.936,12.536-23.259,25.129-28.62,12.943-5.509,24.793-12.491,35.896-20.973,3.183-2.432,6.657-4.444,10.416-5.923,14.848-5.841,29.449.131,35.968,14.731,1.99,4.458,3.164,9.162,4.076,13.929,2.249,11.756,5.786,23.024,11.147,33.805,5.332,10.722,6.704,22.071,3.231,33.792-4.883,16.478-22.186,25.073-37.865,18.729Z"/>
    <path class="cls-3" d="M3570.22,1528.888c-3.496,8.295-10.629,16.984-22.021,21.451-14.168,5.555-26.495-2.412-27.47-17.573-1.124-17.474,12.626-36.786,28.999-40.727,11.842-2.85,21.607,3.506,23.801,15.494,1.046,5.715.276,12.117-3.309,21.355Z"/>
    <path class="cls-3" d="M3470.719,1487.486c1.984-5.803,5.232-10.796,9.96-14.728,9.866-8.205,22.262-6.297,29.07,4.583,6.016,9.615,6.532,20.076,3.937,30.799-1.928,7.97-5.7,14.944-12.228,20.173-9.155,7.334-20.603,6.05-27.449-3.433-7.407-10.261-7.76-21.724-4.734-33.55.337-1.319.957-2.565,1.445-3.845Z"/>
    <path class="cls-3" d="M3597.452,1585.19c-5.019,11.744-13.411,19.799-26.022,22.732-16.182,3.764-27.838-7.833-24.467-24.092,2.86-13.797,15.401-25.785,29.33-28.037,15.992-2.586,27.18,10.472,22.388,26.146-.338,1.106-.817,2.168-1.23,3.251Z"/>
    <path class="cls-3" d="M3452.729,1541.785c-3.44,7.802-7.67,13.696-15.506,15.799-7.224,1.939-13.278-.581-18.429-5.582-11.568-11.233-12.855-33.305-2.747-45.948,7.884-9.862,20.484-10.705,29.132-1.487,10.349,11.03,11.354,24.097,7.55,37.219Z"/>
  </g>
  <g>
    <path class="cls-10" d="M3307.909,390.423c-11.799-6.787-21.549-16.107-30.646-25.972-18.147-19.678-40.134-31.693-66.447-36.671-15.292-2.893-30.499-6.638-43.817-15.566-22.008-14.755-31.042-43.502-21.232-68.248,10.869-27.418,32.227-43.773,59.422-51.069,27.95-7.499,54.097-18.311,79.154-32.396,7.184-4.038,14.839-7.137,22.922-9.068,31.926-7.627,59.95,8.739,69.028,40.355,2.772,9.654,3.809,19.574,4.295,29.546,1.199,24.594,5.163,48.565,12.982,72.068,7.776,23.374,7.306,46.887-3.141,69.763-14.687,32.16-52.406,44.691-82.52,27.258Z"/>
    <path class="cls-10" d="M3482.283,144.646c-9.509,15.89-26.538,31.538-51.028,37.36-30.457,7.24-53.276-12.535-50.901-43.699,2.737-35.919,36.303-71.301,70.787-74.618,24.942-2.4,43.005,13.359,44.026,38.408.486,11.942-2.924,24.762-12.883,42.549Z"/>
    <path class="cls-10" d="M3291.511,31.686c5.711-11.249,13.763-20.486,24.525-27.136,22.457-13.876,47.158-6.422,57.896,17.7,9.489,21.317,7.529,42.774-.84,63.871-6.221,15.68-15.91,28.8-30.713,37.575-20.758,12.305-43.709,6.397-54.926-14.89-12.137-23.032-9.556-46.484.008-69.704,1.066-2.589,2.687-4.949,4.05-7.416Z"/>
    <path class="cls-10" d="M3521.555,267.169c-13.602,22.479-33.013,36.472-59.547,38.819-34.045,3.011-54.451-23.964-42.907-56.114,9.796-27.282,38.79-48.092,67.812-48.672,33.32-.666,52.353,29.15,38.083,59.7-1.007,2.155-2.287,4.182-3.441,6.268Z"/>
    <path class="cls-10" d="M3239.244,137.117c-9.251,14.903-19.564,25.692-36.131,27.721-15.273,1.871-26.88-5.003-35.933-16.673-20.333-26.209-16.604-71.54,7.623-94.387,18.898-17.821,44.805-15.912,59.769,5.351,17.908,25.446,16.197,52.351,4.671,77.987Z"/>
  </g>
  <g>
    <path class="cls-10" d="M432.909,2065.423c-11.799-6.787-21.549-16.107-30.646-25.972-18.147-19.678-40.134-31.693-66.447-36.671-15.292-2.893-30.499-6.638-43.817-15.566-22.008-14.755-31.042-43.502-21.232-68.248,10.869-27.418,32.227-43.773,59.422-51.069,27.95-7.499,54.097-18.311,79.154-32.396,7.184-4.038,14.839-7.137,22.922-9.068,31.926-7.627,59.95,8.739,69.028,40.355,2.772,9.654,3.809,19.574,4.295,29.546,1.199,24.594,5.163,48.565,12.982,72.068,7.776,23.374,7.306,46.887-3.141,69.763-14.687,32.16-52.406,44.691-82.52,27.258Z"/>
    <path class="cls-10" d="M607.283,1819.646c-9.509,15.89-26.538,31.538-51.028,37.36-30.457,7.24-53.276-12.535-50.901-43.699,2.737-35.919,36.303-71.301,70.787-74.618,24.942-2.4,43.005,13.359,44.026,38.408.486,11.942-2.924,24.762-12.883,42.549Z"/>
    <path class="cls-10" d="M416.511,1706.686c5.711-11.249,13.763-20.486,24.525-27.136,22.457-13.876,47.158-6.422,57.896,17.7,9.489,21.317,7.529,42.774-.84,63.871-6.221,15.68-15.91,28.8-30.713,37.575-20.758,12.305-43.709,6.397-54.926-14.89-12.137-23.032-9.556-46.484.008-69.704,1.066-2.589,2.687-4.949,4.05-7.416Z"/>
    <path class="cls-10" d="M646.555,1942.169c-13.602,22.479-33.013,36.472-59.547,38.819-34.045,3.011-54.451-23.964-42.907-56.114,9.796-27.282,38.79-48.092,67.812-48.672,33.32-.666,52.353,29.15,38.083,59.7-1.007,2.155-2.287,4.182-3.441,6.268Z"/>
    <path class="cls-10" d="M364.244,1812.117c-9.251,14.903-19.564,25.692-36.131,27.721-15.273,1.871-26.88-5.003-35.933-16.673-20.333-26.209-16.604-71.54,7.623-94.387,18.898-17.821,44.805-15.912,59.769,5.351,17.908,25.446,16.197,52.351,4.671,77.987Z"/>
  </g>
  <g>
    <path class="cls-10" d="M3533.928,1162.26c-6.669,7.072-14.759,12.301-23.119,16.986-16.676,9.346-28.665,22.63-36.482,40.084-4.543,10.144-9.664,20.088-18.072,27.86-13.896,12.844-35.363,14.357-50.928,3.443-17.246-12.093-25.069-29.639-25.632-49.739-.579-20.659-3.758-40.614-9.392-60.353-1.615-5.659-2.5-11.491-2.502-17.425-.009-23.442,16.002-40.198,39.469-41.267,7.165-.326,14.229.597,21.236,1.911,17.283,3.242,34.593,4.459,52.214,2.921,17.525-1.53,33.782,2.692,47.943,13.739,19.908,15.53,22.364,43.809,5.265,61.84Z"/>
    <path class="cls-10" d="M3392.079,1000.41c9.464,9.238,17.513,23.66,17.499,41.637-.016,22.357-17.534,34.933-38.789,28.121-24.498-7.852-43.517-37.031-40.109-61.536,2.465-17.724,16.404-27.662,33.975-24.221,8.377,1.64,16.717,6.134,27.424,15.999Z"/>
    <path class="cls-10" d="M3282.004,1114.222c-6.868-5.831-11.951-12.955-14.788-21.532-5.919-17.899,3.351-33.824,21.887-37.287,16.38-3.06,30.962,1.856,44.23,11.165,9.862,6.919,17.371,15.824,21.015,27.56,5.109,16.458-2.797,31.423-19.443,35.689-18.01,4.616-33.874-1.062-48.42-11.553-1.622-1.17-2.993-2.686-4.481-4.042Z"/>
    <path class="cls-10" d="M3483.698,993.425c13.362,13.173,19.867,28.976,17.102,47.797-3.548,24.149-25.668,33.856-46.089,20.511-17.329-11.325-26.983-34.914-22.578-55.17,5.057-23.257,28.923-31.539,47.781-16.565,1.33,1.056,2.526,2.282,3.784,3.428Z"/>
    <path class="cls-10" d="M3346.586,1167.996c8.82,8.896,14.607,17.847,13.272,29.692-1.231,10.92-7.929,17.844-17.535,22.2-21.575,9.783-52.448-.317-64.305-20.932-9.249-16.08-3.631-33.761,13.619-40.634,20.643-8.225,39.051-2.579,54.95,9.675Z"/>
  </g>
  <g>
    <path class="cls-10" d="M1485.928,805.26c-6.669,7.072-14.759,12.301-23.119,16.986-16.676,9.346-28.665,22.63-36.482,40.084-4.543,10.144-9.664,20.088-18.072,27.86-13.896,12.844-35.363,14.357-50.928,3.443-17.246-12.093-25.069-29.639-25.632-49.739-.579-20.659-3.758-40.614-9.392-60.353-1.615-5.659-2.5-11.491-2.502-17.425-.009-23.442,16.002-40.198,39.469-41.267,7.165-.326,14.229.597,21.236,1.911,17.283,3.242,34.593,4.459,52.214,2.921,17.525-1.53,33.782,2.692,47.943,13.739,19.908,15.53,22.364,43.809,5.265,61.84Z"/>
    <path class="cls-10" d="M1344.079,643.41c9.464,9.238,17.513,23.66,17.499,41.637-.016,22.357-17.534,34.933-38.789,28.121-24.498-7.852-43.517-37.031-40.109-61.536,2.465-17.724,16.404-27.662,33.975-24.221,8.377,1.64,16.717,6.134,27.424,15.999Z"/>
    <path class="cls-10" d="M1234.004,757.222c-6.868-5.831-11.951-12.955-14.788-21.532-5.919-17.899,3.351-33.824,21.887-37.287,16.38-3.06,30.962,1.856,44.23,11.165,9.862,6.919,17.371,15.824,21.015,27.56,5.109,16.458-2.797,31.423-19.443,35.689-18.01,4.616-33.874-1.062-48.42-11.553-1.622-1.17-2.993-2.686-4.481-4.042Z"/>
    <path class="cls-10" d="M1435.698,636.425c13.362,13.173,19.867,28.976,17.102,47.797-3.548,24.149-25.668,33.856-46.089,20.511-17.329-11.325-26.983-34.914-22.578-55.17,5.057-23.257,28.923-31.539,47.781-16.565,1.33,1.056,2.526,2.282,3.784,3.428Z"/>
    <path class="cls-10" d="M1298.586,810.996c8.82,8.896,14.607,17.847,13.272,29.692-1.231,10.92-7.929,17.844-17.535,22.2-21.575,9.783-52.448-.317-64.305-20.932-9.249-16.08-3.631-33.761,13.619-40.634,20.643-8.225,39.051-2.579,54.95,9.675Z"/>
  </g>
  <path class="cls-1" d="M3586.478,841.427c-3.454,24.681-34.163,40.241-60.864,26.811-1.771-.89-6.792-3.915-10.313-7.992l-1.464-1.695c-2.892-3.348-5.037-7.282-6.239-11.539-3.56-12.613-2.992-24.979,4.861-37.018,2.247-3.442,1.106-6.893-1.494-9.903-20.192-23.358-40.373-46.719-60.544-70.095-2.606-3.017-5.797-4.597-9.575-2.9-8.178,3.667-16.081,4.632-23.786,3.512-10.301-1.497-19.647-6.863-26.451-14.741-.926-1.072-3.061-3.543-4.119-4.766-1.663-1.933-3.336-6.609-3.83-8.555-6.872-27.057,8.233-49.717,35.967-52.672,4.616-.493,6.176-1.888,7.348-6.347,4.317-16.416,15.207-26.8,31.791-30.049,16.681-3.267,30.587,2.505,40.553,16.283,9.798,13.55,10.783,28.412,2.708,42.901-4.052,7.272-2.902,11.914,2.228,17.709,18.761,21.207,37.232,42.676,55.56,64.263,4.492,5.29,8.681,6.453,15.411,3.915,15.806-5.964,30.596-3.185,42.827,8.69,12.936,12.56,14.498,28.098,8.634,44.254-5.644,15.552-17.044,24.769-33.96,26.115-2.792.222-4.749.216-5.251,3.817Z"/>
  <path class="cls-2" d="M281.157,3494.422c4.212,59.975-60.464,112.082-130.204,93.763-4.626-1.214-17.99-5.837-28.342-13.694l-4.305-3.267c-8.501-6.453-15.535-14.661-20.504-24.106-14.721-27.983-19.575-57.451-7.072-89.796,3.579-9.248-.843-16.82-8.486-22.621-59.352-45.009-118.683-90.029-177.995-135.09-7.66-5.814-15.983-7.944-24.048-2.047-17.463,12.75-35.63,18.987-54.373,20.204-25.06,1.627-49.804-6.354-69.808-21.536-2.721-2.065-8.998-6.828-12.107-9.184-4.893-3.728-11.183-13.927-13.324-18.271-29.772-60.41-5.477-121.452,58.493-142.32,10.646-3.476,13.628-7.548,14.163-18.659,1.964-40.903,22.462-70.864,59.972-86.84,37.729-16.067,73.439-9.411,103.86,18.112,29.911,27.068,39.68,61.648,27.883,99.886-5.92,19.192-.88,29.57,14.129,40.677,54.898,40.649,109.243,82.062,163.312,123.822,13.251,10.235,23.72,10.88,38.33,1.52,34.313-21.991,70.609-22.844,105.423-.947,36.819,23.161,48.29,59.046,42.545,100.111-5.53,39.528-27.816,66.991-67.062,78.643-6.477,1.923-11.098,2.889-10.479,11.639Z"/>
  <path class="cls-4" d="M584.93,2845.37c-23.899,3.495-46.722-20.843-41.486-49.333.347-1.89,1.796-7.383,4.632-11.766l1.179-1.823c2.329-3.6,5.405-6.665,9.039-8.941,10.766-6.74,22.425-9.573,35.759-5.54,3.813,1.155,6.713-.845,8.806-4.081,16.241-25.133,32.488-50.257,48.751-75.376,2.098-3.244,2.7-6.642.095-9.695-5.634-6.611-8.68-13.701-9.732-21.173-1.407-9.99,1.044-20.143,6.523-28.614.745-1.152,2.464-3.81,3.314-5.127,1.346-2.073,5.242-4.9,6.918-5.888,23.303-13.747,48.488-5.855,58.776,19.142,1.713,4.16,3.435,5.232,7.902,5.111,16.445-.446,29.065,6.862,36.595,21.407,7.574,14.63,5.984,29.136-4.125,42.152-9.942,12.798-23.5,17.754-39.174,14.18-7.866-1.793-11.872.539-15.869,6.886-14.629,23.217-29.581,46.236-44.68,69.154-3.701,5.617-3.643,9.83.546,15.401,9.844,13.083,11.279,27.597,3.557,42.204-8.168,15.448-22.198,21.124-38.822,20.061-16.002-1.024-27.675-9.124-33.526-24.494-.966-2.537-1.492-4.359-4.978-3.847Z"/>
  <g class="cls-12">
    <path class="cls-4" d="M2451.411,3259.887c6.256,7.44,10.518,16.079,14.208,24.923,7.362,17.642,19.175,31.083,35.612,40.859,9.553,5.682,18.84,11.915,25.591,21.163,11.157,15.284,10.186,36.782-2.45,50.985-14,15.737-32.331,21.486-52.362,19.728-20.588-1.806-40.776-.948-61.034,2.372-5.808.952-11.702,1.159-17.598.477-23.286-2.693-38.085-20.529-36.442-43.962.502-7.155,2.233-14.065,4.346-20.874,5.212-16.795,8.416-33.848,8.92-51.53.501-17.585,6.568-33.246,19.174-46.04,17.721-17.985,46.095-17.165,62.035,1.898Z"/>
    <path class="cls-4" d="M2274.29,3382.134c10.267-8.336,25.521-14.669,43.377-12.583,22.207,2.593,32.679,21.444,23.462,41.772-10.623,23.43-41.8,38.959-65.749,32.749-17.322-4.492-25.587-19.484-20.143-36.54,2.595-8.132,8.02-15.899,19.053-25.397Z"/>
    <path class="cls-4" d="M2374.655,3504.594c-6.583,6.15-14.246,10.378-23.093,12.207-18.462,3.816-33.212-7.228-34.516-26.039-1.152-16.624,5.412-30.541,16.189-42.649,8.01-8.999,17.72-15.431,29.799-17.698,16.938-3.178,30.891,6.401,33.21,23.427,2.509,18.422-4.959,33.526-17.057,46.766-1.349,1.476-3.013,2.664-4.531,3.985Z"/>
    <path class="cls-4" d="M2277.913,3290.32c14.625-11.755,31.073-16.395,49.449-11.479,23.579,6.308,30.672,29.399,15.061,48.146-13.247,15.908-37.791,22.778-57.405,16.068-22.519-7.704-27.995-32.366-10.947-49.372,1.203-1.2,2.558-2.246,3.842-3.364Z"/>
    <path class="cls-4" d="M2435.515,3446.641c9.853-7.736,19.411-12.452,31.024-9.761,10.705,2.481,16.811,9.933,20.031,19.977,7.231,22.559-6.36,52.061-28.205,61.464-17.039,7.334-33.955-.284-38.793-18.212-5.791-21.454,1.94-39.087,15.944-53.468Z"/>
  </g>
  <g class="cls-12">
    <path class="cls-4" d="M1029.589,3520.507c-7.975,5.557-16.964,9.021-26.105,11.896-18.236,5.736-32.689,16.286-43.912,31.771-6.523,9-13.57,17.685-23.39,23.572-16.23,9.729-37.552,6.818-50.555-7.05-14.407-15.366-18.474-34.142-14.912-53.932,3.66-20.34,4.631-40.523,3.156-60.998-.423-5.87-.096-11.759,1.116-17.569,4.788-22.948,23.889-36.073,47.078-32.318,7.081,1.147,13.805,3.496,20.396,6.216,16.254,6.71,32.948,11.443,50.512,13.543,17.468,2.089,32.516,9.547,44.117,23.258,16.309,19.275,12.927,47.458-7.5,61.609Z"/>
    <path class="cls-4" d="M923.859,3333.056c7.373,10.979,12.301,26.743,8.609,44.337-4.591,21.881-24.311,30.606-43.722,19.589-22.374-12.698-35.019-45.151-26.669-68.441,6.04-16.845,21.717-23.72,38.212-16.756,7.864,3.32,15.108,9.425,23.57,21.272Z"/>
    <path class="cls-4" d="M792.826,3421.937c-5.53-7.113-9.048-15.126-10.069-24.103-2.131-18.732,10.201-32.422,29.053-32.02,16.66.356,29.927,8.152,41.01,19.979,8.238,8.791,13.766,19.043,14.931,31.277,1.634,17.156-9.168,30.186-26.334,30.956-18.574.833-32.94-7.971-45.032-21.216-1.348-1.477-2.38-3.242-3.559-4.873Z"/>
    <path class="cls-4" d="M1014.969,3344.967c10.384,15.628,13.518,32.428,6.96,50.285-8.414,22.912-32.052,27.888-49.311,10.646-14.645-14.631-19.268-39.696-10.811-58.623,9.709-21.73,34.765-24.954,50.16-6.438,1.086,1.306,2.006,2.75,3.003,4.13Z"/>
    <path class="cls-4" d="M845.037,3487.788c6.813,10.512,10.646,20.458,6.916,31.779-3.439,10.437-11.412,15.844-21.707,18.142-23.12,5.161-51.273-11.042-58.662-33.647-5.763-17.632,3.354-33.79,21.645-36.988,21.89-3.827,38.752,5.466,51.808,20.714Z"/>
  </g>
  <g class="cls-9">
    <path class="cls-10" d="M1654.111,3516.84c-5.504.873-11.008.413-16.443-.389-10.843-1.6-20.938.23-30.6,5.413-5.615,3.013-11.423,5.732-17.962,6.314-10.806.962-21.08-5.871-24.321-16.277-3.591-11.53-.996-22.234,5.79-31.555,6.974-9.579,12.521-19.75,16.879-30.683,1.249-3.134,2.891-6.091,4.968-8.786,8.208-10.643,21.345-12.639,32.37-4.904,3.367,2.362,6.249,5.255,8.969,8.307,6.709,7.526,14.139,14.142,22.676,19.617,8.49,5.445,14.39,13.056,16.947,23.03,3.595,14.023-5.196,27.718-19.273,29.912Z"/>
    <path class="cls-10" d="M1646.426,3393.69c1.059,7.508-.34,16.873-6.643,25.028-7.839,10.142-20.195,9.713-27.456-.825-8.369-12.146-6.78-32.051,3.352-41.98,7.328-7.181,17.136-6.809,23.905.908,3.227,3.679,5.439,8.64,6.843,16.868Z"/>
    <path class="cls-10" d="M1556.597,3406.787c-1.075-5.052-.886-10.066.831-14.953,3.584-10.197,13.37-14.178,22.996-9.257,8.507,4.349,13.403,11.688,16.164,20.561,2.052,6.595,2.341,13.267-.116,19.87-3.446,9.26-12.277,13.282-21.327,9.387-9.791-4.214-15.003-12.348-17.93-22.205-.326-1.099-.418-2.268-.618-3.404Z"/>
    <path class="cls-10" d="M1690.456,3422.614c1.45,10.66-1.133,20.111-8.981,27.685-10.07,9.718-23.51,6.375-28.104-6.836-3.898-11.21-.016-25.299,9.079-32.95,10.442-8.784,24.176-4.183,27.49,9.219.234.945.347,1.92.517,2.882Z"/>
    <path class="cls-10" d="M1567.071,3453.817c.887,7.127.378,13.217-4.377,18.126-4.384,4.525-9.849,5.322-15.735,3.933-13.219-3.118-23.694-18.516-21.854-32.027,1.435-10.538,10.178-16.595,20.415-13.672,12.251,3.498,18.627,12.509,21.551,23.64Z"/>
  </g>
  <g class="cls-11">
    <path class="cls-4" d="M298.928,2555.26c-6.669,7.072-14.759,12.301-23.119,16.986-16.676,9.346-28.665,22.63-36.482,40.084-4.543,10.144-9.664,20.088-18.072,27.86-13.896,12.844-35.363,14.357-50.928,3.443-17.246-12.093-25.069-29.639-25.632-49.739-.579-20.659-3.758-40.614-9.392-60.353-1.615-5.659-2.5-11.491-2.502-17.425-.009-23.442,16.002-40.198,39.469-41.267,7.165-.326,14.229.597,21.236,1.911,17.283,3.242,34.593,4.459,52.214,2.921,17.525-1.53,33.782,2.692,47.943,13.739,19.908,15.53,22.364,43.809,5.265,61.84Z"/>
    <path class="cls-4" d="M157.079,2393.41c9.464,9.238,17.513,23.66,17.499,41.637-.016,22.357-17.534,34.933-38.789,28.121-24.498-7.852-43.517-37.031-40.109-61.536,2.465-17.724,16.404-27.662,33.975-24.221,8.377,1.64,16.717,6.134,27.424,15.999Z"/>
    <path class="cls-4" d="M47.004,2507.222c-6.868-5.831-11.951-12.955-14.788-21.532-5.919-17.899,3.351-33.824,21.887-37.287,16.38-3.06,30.962,1.856,44.23,11.165,9.862,6.919,17.371,15.824,21.015,27.56,5.109,16.458-2.797,31.423-19.443,35.689-18.01,4.616-33.874-1.062-48.42-11.553-1.622-1.17-2.993-2.686-4.481-4.042Z"/>
    <path class="cls-4" d="M248.698,2386.425c13.362,13.173,19.867,28.976,17.102,47.797-3.548,24.149-25.668,33.856-46.089,20.511-17.329-11.325-26.983-34.914-22.578-55.17,5.057-23.257,28.923-31.539,47.781-16.565,1.33,1.056,2.526,2.282,3.784,3.428Z"/>
    <path class="cls-4" d="M111.586,2560.996c8.82,8.896,14.607,17.847,13.272,29.692-1.231,10.92-7.929,17.844-17.535,22.2-21.575,9.783-52.448-.317-64.305-20.932-9.249-16.08-3.631-33.761,13.619-40.634,20.643-8.225,39.051-2.579,54.95,9.675Z"/>
  </g>
  <path class="cls-7" d="M2233.612,4251.846c29.813,85.95-44.11,187.582-153.213,188.334-7.236.052-28.582-1.43-46.804-8.824l-7.578-3.075c-14.964-6.072-28.478-15.288-39.463-27.126-32.543-35.07-51.259-76.202-45.755-128.384,1.58-14.922-7.867-24.238-21.321-29.697-104.458-42.335-208.888-84.694-313.308-127.12-13.484-5.472-26.482-5.299-35.937,6.497-20.481,25.515-44.557,41.792-71.458,50.964-35.966,12.263-75.26,10.366-110.471-3.921-4.79-1.943-15.838-6.425-21.309-8.639-8.619-3.515-21.831-15.933-26.672-21.434-67.323-76.502-55.913-175.257,29.302-230.976,14.181-9.278,16.931-16.403,13.328-32.844-13.268-60.525,4.857-112.38,53.349-150.514,48.776-38.355,103.567-42.719,158.864-14.515,54.372,27.741,82.285,74.402,80.136,134.914-1.076,30.37,10.379,43.543,36.687,53.847,96.231,37.723,191.956,76.78,287.413,116.454,23.395,9.723,38.943,6.536,56.592-12.9,41.449-45.661,94.134-61.226,153.629-42.972,62.923,19.308,93.835,67.205,101.644,129.459,7.516,59.924-14.206,108.833-66.939,141.338-8.703,5.364-15.072,8.598-10.716,21.136Z"/>
  <g class="cls-12">
    <path class="cls-10" d="M1359.142,2449.643c-9.296-2.842-17.57-7.774-25.476-13.189-15.772-10.802-32.994-15.658-52.105-14.925-11.107.426-22.29.246-32.985-3.845-17.674-6.759-28.549-25.33-25.669-44.12,3.192-20.82,15.45-35.612,33.216-45.03,18.26-9.679,34.736-21.378,49.931-35.18,4.356-3.957,9.191-7.336,14.509-9.97,21.007-10.403,43.126-3.482,54.489,17.078,3.47,6.278,5.774,13.018,7.704,19.882,4.758,16.929,11.343,32.983,20.535,48.096,9.142,15.03,12.567,31.473,8.944,49.064-5.092,24.73-29.35,39.471-53.093,32.14Z"/>
    <path class="cls-10" d="M1441.311,2250.735c-4.084,12.579-13.441,26.188-29.56,34.148-20.047,9.899-39.086-.226-42.405-22.298-3.826-25.44,13.894-55.425,37.37-63.237,16.98-5.65,32.068,2.438,36.775,19.712,2.244,8.236,1.915,17.704-2.18,31.674Z"/>
    <path class="cls-10" d="M1290.49,2202.54c2.18-8.742,6.312-16.457,12.743-22.802,13.419-13.242,31.803-11.995,43.126,3.083,10.007,13.325,12.066,28.574,9.606,44.595-1.829,11.908-6.48,22.586-15.384,31.057-12.486,11.878-29.405,11.427-40.61-1.602-12.123-14.096-14.069-30.833-11.116-48.523.329-1.972,1.08-3.874,1.636-5.808Z"/>
    <path class="cls-10" d="M1488.197,2329.757c-5.882,17.818-17.162,30.656-35.257,36.523-23.218,7.528-41.728-7.994-38.821-32.215,2.466-20.554,19.329-39.666,39.438-44.701,23.088-5.78,41.094,11.939,36.035,35.481-.357,1.661-.925,3.276-1.395,4.912Z"/>
    <path class="cls-10" d="M1270.928,2284.27c-4.062,11.85-9.519,21.006-20.728,25.062-10.333,3.739-19.51.806-27.674-5.873-18.335-15-22.972-47.15-9.753-66.92,10.311-15.421,28.65-18.225,42.46-5.811,16.526,14.856,19.627,33.858,15.695,53.542Z"/>
  </g>
  <g class="cls-12">
    <path class="cls-10" d="M3879.385,3886.654c12.321,24.312,18.437,57.798,6.461,92.861-14.894,43.605-57.427,56.494-94.364,29.075-42.574-31.602-60.281-101.168-37.342-146.709,16.591-32.939,50.39-43.06,82.38-24.667,15.251,8.769,28.536,23.078,42.865,49.44Z"/>
    <path class="cls-10" d="M3588.992,4035.515c-9.523-15.94-14.704-33.217-14.535-51.836.351-38.853,29.021-63.758,67.483-58.193,33.99,4.918,59.168,24.201,78.866,51.182,14.641,20.054,23.37,42.417,22.676,67.735-.973,35.504-26.345,59.443-61.654,56.7-38.204-2.968-65.378-24.589-86.781-54.724-2.386-3.36-4.054-7.23-6.054-10.864Z"/>
    <path class="cls-10" d="M4062.764,3933.931c17.312,34.58,19.497,69.734,1.592,104.612-22.974,44.753-72.579,48.987-103.548,9.377-26.279-33.612-29.431-86.048-7.373-122.638,25.326-42.009,77.39-42.303,104.225-.555,1.893,2.945,3.411,6.13,5.104,9.204Z"/>
  </g>
  <path class="cls-5" d="M2849.911,2524.083c33.203,17.464,39.605,68.891,6.98,99.875-2.163,2.056-9.005,7.627-16.574,10.539l-3.147,1.211c-6.216,2.391-12.881,3.427-19.524,2.961-19.681-1.381-36.909-8.484-49.963-25.741-3.731-4.936-9.201-5.077-14.789-2.928-43.373,16.706-86.745,33.396-130.133,50.064-5.601,2.154-9.464,5.87-8.985,12.086,1.029,13.453-1.629,25.139-7.14,35.483-7.368,13.83-19.729,24.336-34.354,29.962-1.989.765-6.578,2.531-8.849,3.407-3.585,1.372-11.062,1.359-14.07,1.068-41.829-4.046-66.234-36.985-56.294-77.778,1.653-6.79.472-9.71-5.248-13.642-21.056-14.476-30.219-35.192-26.374-60.34,3.868-25.294,19.128-42.053,43.722-49.153,24.185-6.979,45.739-.804,62.152,18.015,8.238,9.444,15.399,10.179,26.221,5.864,39.597-15.774,79.418-31.005,119.332-45.974,9.782-3.669,13.563-9.011,13.396-19.836-.397-25.427,11.072-44.964,34.124-56.242,24.381-11.927,47.187-6.226,67.087,10.309,19.155,15.917,26.405,36.76,19.697,61.409-1.107,4.068-2.113,6.837,2.733,9.382Z"/>
  <path class="cls-2" d="M3842.7,3325.833c-58.821,12.444-119.349-44.428-110.824-116.028.564-4.749,3.3-18.623,9.655-29.959l2.643-4.714c5.219-9.31,12.378-17.409,21.048-23.633,25.685-18.439,54.202-27.311,87.962-19.389,9.653,2.27,16.543-3.155,21.235-11.525,36.393-64.992,72.8-129.965,109.25-194.926,4.702-8.389,5.663-16.926-1.29-24.101-15.037-15.538-23.719-32.67-27.51-51.067-5.068-24.596-.576-50.204,11.703-72.111,1.67-2.98,5.522-9.854,7.426-13.258,3.017-5.361,12.251-12.997,16.259-15.717,55.727-37.819,119.536-22.175,149.027,38.306,4.911,10.065,9.356,12.457,20.434,11.454,40.783-3.696,73.285,12.474,94.281,47.422,21.117,35.153,19.45,71.439-3.615,105.366-22.684,33.358-55.586,47.803-95.086,41.392-19.825-3.216-29.408,3.206-38.339,19.604-32.69,59.98-66.211,119.517-100.116,178.828-8.309,14.536-7.505,24.994,3.781,38.173,26.514,30.952,32.364,66.784,15.477,104.285-17.862,39.662-51.822,55.972-93.287,55.946-39.913-.025-70.187-18.311-87.141-55.575-2.798-6.15-4.392-10.594-12.973-8.774Z"/>
  <path class="cls-6" d="M1953.505,2847.071c-23.804,4.092-47.229-19.668-42.707-48.279.299-1.898,1.611-7.425,4.336-11.878l1.133-1.852c2.238-3.657,5.236-6.798,8.812-9.164,10.594-7.008,22.178-10.131,35.609-6.433,3.84,1.059,6.689-1.013,8.701-4.3,15.608-25.531,31.22-51.054,46.85-76.572,2.016-3.295,2.533-6.708-.148-9.695-5.798-6.468-9.02-13.479-10.259-20.923-1.657-9.952.54-20.163,5.805-28.768.716-1.171,2.368-3.871,3.185-5.208,1.294-2.106,5.118-5.029,6.768-6.06,22.951-14.326,48.326-7.066,59.236,17.666,1.817,4.116,3.564,5.144,8.027,4.912,16.428-.858,29.228,6.133,37.119,20.485,7.937,14.436,6.711,28.977-3.069,42.242-9.618,13.043-23.048,18.336-38.806,15.156-7.909-1.595-11.855.836-15.692,7.281-14.044,23.576-28.415,46.961-42.936,70.25-3.559,5.708-3.396,9.918.932,15.382,10.168,12.832,11.966,27.306,4.612,42.101-7.779,15.647-21.663,21.673-38.308,21.026-16.022-.623-27.894-8.428-34.128-23.648-1.029-2.512-1.6-4.32-5.073-3.721Z"/>
  <path class="cls-8" d="M2953.542,3172.174c19.757-2.143,37.778,18.566,32.601,41.83-.343,1.543-1.702,6.015-4.168,9.533l-1.025,1.463c-2.025,2.889-4.648,5.315-7.705,7.075-9.058,5.213-18.73,7.186-29.57,3.461-3.099-1.066-5.545.489-7.365,3.086-14.122,20.168-28.249,40.328-42.389,60.484-1.824,2.603-2.423,5.379-.375,7.969,4.43,5.608,6.718,11.53,7.355,17.706.852,8.257-1.474,16.53-6.238,23.327-.648.925-2.143,3.058-2.882,4.114-1.17,1.663-4.46,3.868-5.868,4.63-19.58,10.591-40.046,3.331-47.74-17.536-1.282-3.473-2.664-4.407-6.34-4.444-13.535-.136-23.688-6.531-29.434-18.72-5.78-12.26-4.029-24.138,4.681-34.531,8.565-10.219,19.865-13.879,32.642-10.461,6.413,1.715,9.778-.08,13.258-5.177,12.738-18.642,25.736-37.111,38.851-55.493,3.214-4.505,3.296-7.971.022-12.679-7.694-11.058-8.43-23.036-1.634-34.809,7.188-12.451,18.897-16.69,32.533-15.307,13.125,1.331,22.475,8.348,26.816,21.164.716,2.115,1.093,3.629,3.975,3.315Z"/>
  <path class="cls-4" d="M3178.274,3736.485c36.491,8.706,55.418,56.951,31.473,95.042-1.587,2.527-6.838,9.618-13.451,14.312l-2.75,1.952c-5.431,3.854-11.632,6.507-18.185,7.699-19.411,3.531-37.861.912-54.779-12.579-4.836-3.86-10.171-2.643-15.053.822-37.891,26.917-75.785,53.82-113.7,80.704-4.894,3.473-7.717,8.029-5.715,13.934,4.325,12.78,4.641,24.761,1.861,36.147-3.717,15.223-13.094,28.461-25.873,37.531-1.738,1.234-5.747,4.08-7.731,5.49-3.134,2.216-10.382,4.054-13.368,4.516-41.529,6.429-73.325-19.448-73.788-61.431-.079-6.988-1.945-9.524-8.46-11.92-23.983-8.817-37.986-26.621-40.483-51.938-2.511-25.465,8.128-45.478,30.201-58.443,21.706-12.745,44.119-12.095,64.676,2.077,10.318,7.112,17.438,6.053,26.857-.806,34.463-25.081,69.278-49.69,104.247-74.07,8.57-5.975,10.912-12.087,8.072-22.534-6.676-24.538-.397-46.305,19.148-62.936,20.672-17.588,44.18-17.707,67.552-6.61,22.498,10.683,34.679,29.084,34.278,54.626-.066,4.215-.355,7.147,4.969,8.414Z"/>
  <g class="cls-12">
    <path class="cls-3" d="M3502.998,3879.038c-6.14-2.465-11.467-6.288-16.516-10.417-10.072-8.238-21.472-12.526-34.475-13.133-7.557-.353-15.131-1.122-22.148-4.514-11.596-5.606-17.898-18.828-14.859-31.406,3.368-13.936,12.536-23.259,25.129-28.62,12.943-5.509,24.793-12.491,35.896-20.973,3.183-2.432,6.657-4.444,10.416-5.923,14.848-5.841,29.449.131,35.968,14.731,1.99,4.458,3.164,9.162,4.076,13.929,2.249,11.756,5.786,23.024,11.147,33.805,5.332,10.722,6.704,22.071,3.231,33.792-4.883,16.478-22.186,25.073-37.865,18.729Z"/>
    <path class="cls-3" d="M3570.22,3748.888c-3.496,8.295-10.629,16.984-22.021,21.451-14.168,5.555-26.495-2.412-27.47-17.573-1.124-17.474,12.626-36.786,28.999-40.727,11.842-2.85,21.607,3.506,23.801,15.494,1.046,5.715.276,12.117-3.309,21.355Z"/>
    <path class="cls-3" d="M3470.719,3707.486c1.984-5.803,5.232-10.796,9.96-14.728,9.866-8.205,22.262-6.297,29.07,4.583,6.016,9.615,6.532,20.076,3.937,30.799-1.928,7.97-5.7,14.944-12.228,20.173-9.155,7.334-20.603,6.05-27.449-3.433-7.407-10.261-7.76-21.724-4.734-33.55.337-1.319.957-2.565,1.445-3.845Z"/>
    <path class="cls-3" d="M3597.452,3805.19c-5.019,11.744-13.411,19.799-26.022,22.732-16.182,3.764-27.838-7.833-24.467-24.092,2.86-13.797,15.401-25.785,29.33-28.037,15.992-2.586,27.18,10.472,22.388,26.146-.338,1.106-.817,2.168-1.23,3.251Z"/>
    <path class="cls-3" d="M3452.729,3761.785c-3.44,7.802-7.67,13.696-15.506,15.799-7.224,1.939-13.278-.581-18.429-5.582-11.568-11.233-12.855-33.305-2.747-45.948,7.884-9.862,20.484-10.705,29.132-1.487,10.349,11.03,11.354,24.097,7.55,37.219Z"/>
  </g>
  <g>
    <path class="cls-10" d="M3125.909,2356.423c-11.799-6.787-21.549-16.107-30.646-25.972-18.147-19.678-40.134-31.693-66.447-36.671-15.292-2.893-30.499-6.638-43.817-15.566-22.008-14.755-31.042-43.502-21.232-68.248,10.869-27.418,32.227-43.773,59.422-51.069,27.95-7.499,54.097-18.311,79.154-32.396,7.184-4.038,14.839-7.137,22.922-9.068,31.926-7.627,59.95,8.739,69.028,40.355,2.772,9.654,3.809,19.574,4.295,29.546,1.199,24.594,5.163,48.565,12.982,72.068,7.776,23.374,7.306,46.887-3.141,69.763-14.687,32.16-52.406,44.691-82.52,27.258Z"/>
    <path class="cls-10" d="M3300.283,2110.646c-9.509,15.89-26.538,31.538-51.028,37.36-30.457,7.24-53.276-12.535-50.901-43.699,2.737-35.919,36.303-71.301,70.787-74.618,24.942-2.4,43.005,13.359,44.026,38.408.486,11.942-2.924,24.762-12.883,42.549Z"/>
    <path class="cls-10" d="M3109.511,1997.686c5.711-11.249,13.763-20.486,24.525-27.136,22.457-13.876,47.158-6.422,57.896,17.7,9.489,21.317,7.529,42.774-.84,63.871-6.221,15.68-15.91,28.8-30.713,37.575-20.758,12.305-43.709,6.397-54.926-14.89-12.137-23.032-9.556-46.484.008-69.704,1.066-2.589,2.687-4.949,4.05-7.416Z"/>
    <path class="cls-10" d="M3339.555,2233.169c-13.602,22.479-33.013,36.472-59.547,38.819-34.045,3.011-54.451-23.964-42.907-56.114,9.796-27.282,38.79-48.092,67.812-48.672,33.32-.666,52.353,29.15,38.083,59.7-1.007,2.155-2.287,4.182-3.441,6.268Z"/>
    <path class="cls-10" d="M3057.244,2103.117c-9.251,14.903-19.564,25.692-36.131,27.721-15.273,1.871-26.88-5.003-35.933-16.673-20.333-26.209-16.604-71.54,7.623-94.387,18.898-17.821,44.805-15.912,59.769,5.351,17.908,25.446,16.197,52.351,4.671,77.987Z"/>
  </g>
  <g>
    <path class="cls-10" d="M607.283,4039.646c-9.509,15.89-26.538,31.538-51.028,37.36-30.457,7.24-53.276-12.535-50.901-43.699,2.737-35.919,36.303-71.301,70.787-74.618,24.942-2.4,43.005,13.359,44.026,38.408.486,11.942-2.924,24.762-12.883,42.549Z"/>
    <path class="cls-10" d="M416.511,3926.686c5.711-11.249,13.763-20.486,24.525-27.136,22.457-13.876,47.158-6.422,57.896,17.7,9.489,21.317,7.529,42.774-.84,63.871-6.221,15.68-15.91,28.8-30.713,37.575-20.758,12.305-43.709,6.397-54.926-14.89-12.137-23.032-9.556-46.484.008-69.704,1.066-2.589,2.687-4.949,4.05-7.416Z"/>
    <path class="cls-10" d="M364.244,4032.117c-9.251,14.903-19.564,25.692-36.131,27.721-15.273,1.871-26.88-5.003-35.933-16.673-20.333-26.209-16.604-71.54,7.623-94.387,18.898-17.821,44.805-15.912,59.769,5.351,17.908,25.446,16.197,52.351,4.671,77.987Z"/>
  </g>
  <g>
    <path class="cls-10" d="M3533.928,3382.26c-6.669,7.072-14.759,12.301-23.119,16.986-16.676,9.346-28.665,22.63-36.482,40.084-4.543,10.144-9.664,20.088-18.072,27.86-13.896,12.844-35.363,14.357-50.928,3.443-17.246-12.093-25.069-29.639-25.632-49.739-.579-20.659-3.758-40.614-9.392-60.353-1.615-5.659-2.5-11.491-2.502-17.425-.009-23.442,16.002-40.198,39.469-41.267,7.165-.326,14.229.597,21.236,1.911,17.283,3.242,34.593,4.459,52.214,2.921,17.525-1.53,33.782,2.692,47.943,13.739,19.908,15.53,22.364,43.809,5.265,61.84Z"/>
    <path class="cls-10" d="M3392.079,3220.41c9.464,9.238,17.513,23.66,17.499,41.637-.016,22.357-17.534,34.933-38.789,28.121-24.498-7.852-43.517-37.031-40.109-61.536,2.465-17.724,16.404-27.662,33.975-24.221,8.377,1.64,16.717,6.134,27.424,15.999Z"/>
    <path class="cls-10" d="M3282.004,3334.222c-6.868-5.831-11.951-12.955-14.788-21.532-5.919-17.899,3.351-33.824,21.887-37.287,16.38-3.06,30.962,1.856,44.23,11.165,9.862,6.919,17.371,15.824,21.015,27.56,5.109,16.458-2.797,31.423-19.443,35.689-18.01,4.616-33.874-1.062-48.42-11.553-1.622-1.17-2.993-2.686-4.481-4.042Z"/>
    <path class="cls-10" d="M3483.698,3213.425c13.362,13.173,19.867,28.976,17.102,47.797-3.548,24.149-25.668,33.856-46.089,20.511-17.329-11.325-26.983-34.914-22.578-55.17,5.057-23.257,28.923-31.539,47.781-16.565,1.33,1.056,2.526,2.282,3.784,3.428Z"/>
    <path class="cls-10" d="M3346.586,3387.996c8.82,8.896,14.607,17.847,13.272,29.692-1.231,10.92-7.929,17.844-17.535,22.2-21.575,9.783-52.448-.317-64.305-20.932-9.249-16.08-3.631-33.761,13.619-40.634,20.643-8.225,39.051-2.579,54.95,9.675Z"/>
  </g>
  <g>
    <path class="cls-10" d="M1485.928,3025.26c-6.669,7.072-14.759,12.301-23.119,16.986-16.676,9.346-28.665,22.63-36.482,40.084-4.543,10.144-9.664,20.088-18.072,27.86-13.896,12.844-35.363,14.357-50.928,3.443-17.246-12.093-25.069-29.639-25.632-49.739-.579-20.659-3.758-40.614-9.392-60.353-1.615-5.659-2.5-11.491-2.502-17.425-.009-23.442,16.002-40.198,39.469-41.267,7.165-.326,14.229.597,21.236,1.911,17.283,3.242,34.593,4.459,52.214,2.921,17.525-1.53,33.782,2.692,47.943,13.739,19.908,15.53,22.364,43.809,5.265,61.84Z"/>
    <path class="cls-10" d="M1344.079,2863.41c9.464,9.238,17.513,23.66,17.499,41.637-.016,22.357-17.534,34.933-38.789,28.121-24.498-7.852-43.517-37.031-40.109-61.536,2.465-17.724,16.404-27.662,33.975-24.221,8.377,1.64,16.717,6.134,27.424,15.999Z"/>
    <path class="cls-10" d="M1234.004,2977.222c-6.868-5.831-11.951-12.955-14.788-21.532-5.919-17.899,3.351-33.824,21.887-37.287,16.38-3.06,30.962,1.856,44.23,11.165,9.862,6.919,17.371,15.824,21.015,27.56,5.109,16.458-2.797,31.423-19.443,35.689-18.01,4.616-33.874-1.062-48.42-11.553-1.622-1.17-2.993-2.686-4.481-4.042Z"/>
    <path class="cls-10" d="M1435.698,2856.425c13.362,13.173,19.867,28.976,17.102,47.797-3.548,24.149-25.668,33.856-46.089,20.511-17.329-11.325-26.983-34.914-22.578-55.17,5.057-23.257,28.923-31.539,47.781-16.565,1.33,1.056,2.526,2.282,3.784,3.428Z"/>
    <path class="cls-10" d="M1298.586,3030.996c8.82,8.896,14.607,17.847,13.272,29.692-1.231,10.92-7.929,17.844-17.535,22.2-21.575,9.783-52.448-.317-64.305-20.932-9.249-16.08-3.631-33.761,13.619-40.634,20.643-8.225,39.051-2.579,54.95,9.675Z"/>
  </g>
  <path class="cls-1" d="M3586.478,3061.427c-3.454,24.681-34.163,40.241-60.864,26.811-1.771-.89-6.792-3.915-10.313-7.992l-1.464-1.695c-2.892-3.348-5.037-7.282-6.239-11.539-3.56-12.613-2.992-24.979,4.861-37.018,2.247-3.442,1.106-6.893-1.494-9.903-20.192-23.358-40.373-46.719-60.544-70.095-2.606-3.017-5.797-4.597-9.575-2.9-8.178,3.667-16.081,4.632-23.786,3.512-10.301-1.497-19.647-6.863-26.451-14.741-.926-1.072-3.061-3.543-4.119-4.766-1.663-1.933-3.336-6.609-3.83-8.555-6.872-27.057,8.233-49.717,35.967-52.672,4.616-.493,6.176-1.888,7.348-6.347,4.317-16.416,15.207-26.8,31.791-30.049,16.681-3.267,30.587,2.505,40.553,16.283,9.798,13.55,10.783,28.412,2.708,42.901-4.052,7.272-2.902,11.914,2.228,17.709,18.761,21.207,37.232,42.676,55.56,64.263,4.492,5.29,8.681,6.453,15.411,3.915,15.806-5.964,30.596-3.185,42.827,8.69,12.936,12.56,14.498,28.098,8.634,44.254-5.644,15.552-17.044,24.769-33.96,26.115-2.792.222-4.749.216-5.251,3.817Z"/>
</svg>